<svg width="776.36327" height="516.12769" xmlns="http://www.w3.org/2000/svg">

 <g>
  <title>background</title>
  <rect fill="none" id="canvas_background" height="602" width="802" y="-1" x="-1"/>
 </g>
 <g>
  <title>Layer 1</title>
  <path id="svg_5" fill="#3b3b3b" d="m390.81262,355.99999l-167,0a14.69642,14.69642 0 0 1 -9.60693,-3.20507a1.00014,1.00014 0 0 1 1.21387,-1.58985a12.6768,12.6768 0 0 0 8.39306,2.79492l167,0a15.017,15.017 0 0 0 15,-15l0,-102a15.017,15.017 0 0 0 -15,-15l-167,0a15.017,15.017 0 0 0 -15,15l0,60a1,1 0 0 1 -2,0l0,-60a17.01917,17.01917 0 0 1 17,-17l167,0a17.01917,17.01917 0 0 1 17,17l0,102a17.01916,17.01916 0 0 1 -17,17z"/>
  <path id="svg_6" fill="#3b3b3b" d="m612.81262,413.99999l-442,0a1,1 0 0 1 0,-2l442,0a15.017,15.017 0 0 0 15,-15l0,-310a15.017,15.017 0 0 0 -15,-15l-470,0a15.017,15.017 0 0 0 -15,15l0,202a1,1 0 0 1 -2,0l0,-202a17.01917,17.01917 0 0 1 17,-17l470,0a17.01917,17.01917 0 0 1 17,17l0,310a17.01916,17.01916 0 0 1 -17,17z"/>
  <rect id="svg_7" fill="#3b3b3b" height="2" width="503" y="102.57541" x="126.48585"/>
  <circle id="svg_8" fill="#3b3b3b" r="6" cy="89.53543" cx="145.48585"/>
  <circle id="svg_9" fill="#3b3b3b" r="6" cy="89.53543" cx="162.73585"/>
  <circle id="svg_10" fill="#3b3b3b" r="6" cy="89.53543" cx="179.98585"/>
  <path id="svg_11" fill="#3b3b3b" d="m531.31262,170.99999l-310,0a15.5,15.5 0 0 1 0,-31l310,0a15.5,15.5 0 0 1 0,31zm-310,-29a13.5,13.5 0 0 0 0,27l310,0a13.5,13.5 0 0 0 0,-27l-310,0z"/>
  <path id="svg_12" fill="#3b3b3b" d="m529.31262,249.99999l-60,0a15.5,15.5 0 0 1 0,-31l60,0a15.5,15.5 0 0 1 0,31z"/>
  <path id="svg_13" fill="#3b3b3b" d="m529.31262,301.99999l-60,0a15.5,15.5 0 0 1 0,-31l60,0a15.5,15.5 0 0 1 0,31z"/>
  <path id="svg_14" fill="#3b3b3b" d="m529.31262,353.99999l-60,0a15.5,15.5 0 0 1 0,-31l60,0a15.5,15.5 0 0 1 0,31z"/>
  <path id="svg_27" fill="#3b3b3b" d="m162.60266,343.42999l0,46.16l0.62988,0.46l0,-46.55a4.50175,4.50175 0 0 0 -0.62988,-0.07zm66.96973,-30.2l-31.91992,-23.17a10.84147,10.84147 0 0 0 -15.10987,2.4l-18.66992,25.74l-1.27,1.74l0,99.25a9.55144,9.55144 0 0 1 -9.54,9.54l-5.2998,0l3.06982,0.62a10.39081,10.39081 0 0 0 2.1499,0.22a10.83649,10.83649 0 0 0 8.76026,-4.46l1.2998,-1.8l68.93018,-94.98a10.83724,10.83724 0 0 0 -2.40045,-15.10002l0,0.00002zm1.37012,14.35l-67.10987,92.47l-0.71,0.98l-0.06982,0.1a10.32494,10.32494 0 0 0 0.17968,-1.94l0,-97.95l0.64014,-0.88l19.71,-27.15a9.5575,9.5575 0 0 1 13.31983,-2.12l31.91992,23.17a9.5518,9.5518 0 0 1 2.12012,13.32002l0,-0.00002z"/>
  <path id="svg_28" fill="#3b3b3b" d="m197.00086,351.8789a8.436,8.436 0 0 1 -4.97413,-1.62256l-17.9375,-13.0166a8.51043,8.51043 0 0 1 -1.8872,-11.87207l13.01684,-17.9375a8.5001,8.5001 0 0 1 11.87183,-1.88721l17.9375,13.0166a8.50971,8.50971 0 0 1 1.88721,11.87159l-13.01685,17.9375a8.4438,8.4438 0 0 1 -5.54517,3.40283a8.61669,8.61669 0 0 1 -1.35253,0.10742z"/>
  <path id="svg_29" opacity="0.5" fill="#3b3b3b" d="m168.51428,393.18652a5.544,5.544 0 0 1 -3.26831,-1.06543l-3.145,-2.28076l0,-46.94336l0.52979,0.03173a5.72588,5.72588 0 0 1 1.39429,0.25782a5.46014,5.46014 0 0 1 1.574,0.79785l22.64844,16.44092a5.58451,5.58451 0 0 1 1.23706,7.80273l-16.43556,22.64942a5.54042,5.54042 0 0 1 -3.63965,2.2373a5.66381,5.66381 0 0 1 -0.89506,0.07178z"/>
  <path id="svg_30" fill="#3b3b3b" d="m153.06262,288.79998l-39.43994,0a10.82319,10.82319 0 0 0 -10.81006,10.81l0,119.58a10.82314,10.82314 0 0 0 10.81006,10.81l39.43994,0a10.811,10.811 0 0 0 9.98,-6.69a10.477,10.477 0 0 0 0.6001,-1.9a10.33657,10.33657 0 0 0 0.18994,-1.36a8.17969,8.17969 0 0 0 0.04,-0.86l0,-119.58a10.82319,10.82319 0 0 0 -10.81004,-10.81zm9.54,130.39a9.55144,9.55144 0 0 1 -9.54,9.54l-39.43994,0a9.55113,9.55113 0 0 1 -9.54,-9.54l0,-119.58a9.55114,9.55114 0 0 1 9.54,-9.54l39.43994,0a9.55144,9.55144 0 0 1 9.54,9.54l0,119.58z"/>
  <path id="svg_31" fill="#3b3b3b" d="m144.42432,340.81738l-22.16284,0a8.50958,8.50958 0 0 1 -8.5,-8.5l0,-22.16309a8.50958,8.50958 0 0 1 8.5,-8.5l22.16284,0a8.50948,8.50948 0 0 1 8.49988,8.5l0,22.16309a8.50948,8.50948 0 0 1 -8.49988,8.5z"/>
  <path id="svg_32" opacity="0.5" fill="#3b3b3b" d="m144.42432,390.42919l-22.16284,0a8.50958,8.50958 0 0 1 -8.5,-8.5l0,-22.16308a8.50958,8.50958 0 0 1 8.5,-8.5l22.16284,0a8.50948,8.50948 0 0 1 8.49988,8.5l0,22.16308a8.50948,8.50948 0 0 1 -8.49988,8.5z"/>
  <path id="svg_33" fill="#3b3b3b" d="m133.3429,401.38a8.27,8.27 0 1 0 8.26953,8.27a8.2799,8.2799 0 0 0 -8.26953,-8.27zm0,15.26a6.995,6.995 0 1 1 7,-6.99a7.00535,7.00535 0 0 1 -7,6.99001l0,-0.00001z"/>
 </g>
</svg>